<svg width="129" height="73" viewBox="0 0 129 73" fill="none" xmlns="http://www.w3.org/2000/svg">
<path d="M8.888 34.384C6.36 34.384 4.36 33.68 2.888 32.272C1.416 30.832 0.68 28.896 0.68 26.464C0.68 26.144 0.712 25.632 0.776 24.928L2.696 9.376C3.016 6.528 4.12 4.256 6.008 2.56C7.928 0.863999 10.296 0.0159998 13.112 0.0159998C15.672 0.0159998 17.688 0.735999 19.16 2.176C20.632 3.584 21.368 5.504 21.368 7.936C21.368 8.256 21.336 8.736 21.272 9.376L21.176 9.904C21.144 10.064 21.064 10.208 20.936 10.336C20.84 10.432 20.712 10.48 20.552 10.48L15.08 10.72C14.728 10.72 14.568 10.544 14.6 10.192L14.744 8.944C14.776 8.816 14.792 8.624 14.792 8.368C14.792 7.6 14.568 6.992 14.12 6.544C13.704 6.064 13.128 5.824 12.392 5.824C11.592 5.824 10.904 6.112 10.328 6.688C9.752 7.264 9.4 8.016 9.272 8.944L7.256 25.504C7.224 25.632 7.208 25.808 7.208 26.032C7.208 26.8 7.416 27.424 7.832 27.904C8.28 28.352 8.856 28.576 9.56 28.576C10.392 28.576 11.096 28.304 11.672 27.76C12.248 27.184 12.6 26.432 12.728 25.504L12.872 24.208C12.904 24.048 12.968 23.92 13.064 23.824C13.192 23.696 13.336 23.632 13.496 23.632L18.92 23.872C19.08 23.872 19.208 23.936 19.304 24.064C19.4 24.16 19.432 24.288 19.4 24.448L19.352 24.928C19 27.808 17.864 30.112 15.944 31.84C14.024 33.536 11.672 34.384 8.888 34.384ZM34.5774 34C34.2574 34 34.0654 33.84 34.0014 33.52L32.0334 20.272C31.9694 20.144 31.8894 20.08 31.7934 20.08H30.2574C30.0654 20.08 29.9694 20.16 29.9694 20.32L28.3854 33.424C28.3534 33.584 28.2734 33.728 28.1454 33.856C28.0174 33.952 27.8734 34 27.7134 34H22.2894C22.1294 34 22.0014 33.952 21.9054 33.856C21.8094 33.728 21.7774 33.584 21.8094 33.424L25.7934 0.975999C25.8254 0.815999 25.8894 0.687999 25.9854 0.591998C26.1134 0.463998 26.2574 0.399998 26.4174 0.399998H35.8254C38.1294 0.399998 39.9694 1.168 41.3454 2.704C42.7214 4.208 43.4094 6.224 43.4094 8.752C43.4094 9.52 43.3774 10.112 43.3134 10.528C43.0894 12.384 42.5294 14.048 41.6334 15.52C40.7694 16.96 39.6654 18.08 38.3214 18.88C38.2574 18.912 38.2094 18.96 38.1774 19.024C38.1454 19.056 38.1454 19.104 38.1774 19.168L40.7214 33.328V33.424C40.7214 33.584 40.6574 33.728 40.5294 33.856C40.4334 33.952 40.3054 34 40.1454 34H34.5774ZM31.9374 6.208C31.7774 6.208 31.6974 6.288 31.6974 6.448L30.6894 14.656C30.6254 14.816 30.6894 14.896 30.8814 14.896H32.9454C34.0334 14.896 34.9454 14.416 35.6814 13.456C36.4174 12.496 36.7854 11.232 36.7854 9.664C36.7854 8.608 36.5294 7.776 36.0174 7.168C35.5374 6.528 34.8814 6.208 34.0494 6.208H31.9374ZM48.5315 33.952C48.3715 33.952 48.2435 33.904 48.1475 33.808C48.0515 33.68 48.0195 33.536 48.0515 33.376L49.5875 20.896C49.5875 20.864 49.5875 20.832 49.5875 20.8C49.6195 20.736 49.6195 20.672 49.5875 20.608L45.4595 1.072V0.927999C45.4595 0.768 45.5075 0.639999 45.6035 0.543999C45.6995 0.447998 45.8275 0.399998 45.9875 0.399998H51.7475C52.0995 0.399998 52.2915 0.559998 52.3235 0.879997L53.8115 12.352C53.8115 12.448 53.8435 12.496 53.9075 12.496C54.0035 12.496 54.0675 12.448 54.0995 12.352L58.3715 0.879997C58.4995 0.559998 58.7395 0.399998 59.0915 0.399998H64.8035C64.9955 0.399998 65.1235 0.463998 65.1875 0.591998C65.2835 0.687999 65.2835 0.847999 65.1875 1.072L56.2595 20.608C56.1955 20.704 56.1635 20.8 56.1635 20.896L54.6275 33.376C54.5955 33.536 54.5155 33.68 54.3875 33.808C54.2915 33.904 54.1635 33.952 54.0035 33.952H48.5315ZM78.0586 0.351998C80.3946 0.351998 82.2346 1.12 83.5786 2.656C84.9546 4.192 85.6426 6.224 85.6426 8.752C85.6426 9.552 85.6106 10.16 85.5466 10.576C85.1946 13.552 84.1226 15.936 82.3306 17.728C80.5706 19.52 78.4266 20.416 75.8986 20.416H72.4426C72.3146 20.416 72.2186 20.496 72.1546 20.656L70.6186 33.424C70.5866 33.584 70.5066 33.728 70.3786 33.856C70.2506 33.952 70.1066 34 69.9466 34H64.5226C64.3626 34 64.2346 33.952 64.1386 33.856C64.0426 33.728 64.0106 33.584 64.0426 33.424L68.0266 0.927999C68.0586 0.768 68.1226 0.639999 68.2186 0.543999C68.3466 0.415998 68.4906 0.351998 68.6506 0.351998H78.0586ZM75.1306 15.136C76.2506 15.136 77.1786 14.656 77.9146 13.696C78.6506 12.736 79.0186 11.424 79.0186 9.76C79.0186 8.64 78.7626 7.776 78.2506 7.168C77.7706 6.528 77.0986 6.208 76.2346 6.208H74.1706C74.0106 6.208 73.9306 6.288 73.9306 6.448L72.8746 14.896C72.8746 15.056 72.9386 15.136 73.0666 15.136H75.1306ZM107.875 0.399998C108.035 0.399998 108.163 0.463998 108.259 0.591998C108.355 0.687999 108.387 0.815999 108.355 0.975999L107.779 5.632C107.747 5.792 107.667 5.936 107.539 6.064C107.443 6.16 107.315 6.208 107.155 6.208H101.299C101.235 6.208 101.171 6.24 101.107 6.304C101.075 6.336 101.059 6.384 101.059 6.448L97.7469 33.424C97.7149 33.584 97.6349 33.728 97.5069 33.856C97.4109 33.952 97.2829 34 97.1229 34H91.6509C91.4909 34 91.3629 33.952 91.2669 33.856C91.1709 33.728 91.1389 33.584 91.1709 33.424L94.4829 6.448C94.5469 6.288 94.4829 6.208 94.2909 6.208H88.7229C88.3709 6.208 88.1949 6.016 88.1949 5.632L88.7709 0.975999C88.8029 0.815999 88.8669 0.687999 88.9629 0.591998C89.0909 0.463998 89.2349 0.399998 89.3949 0.399998H107.875ZM115.485 34.384C112.893 34.384 110.845 33.68 109.341 32.272C107.869 30.832 107.133 28.88 107.133 26.416C107.133 26.096 107.165 25.584 107.229 24.88L109.101 9.52C109.453 6.64 110.589 4.336 112.509 2.608C114.429 0.879999 116.813 0.0159998 119.661 0.0159998C122.253 0.0159998 124.301 0.735999 125.805 2.176C127.309 3.584 128.061 5.52 128.061 7.984C128.061 8.304 128.029 8.816 127.965 9.52L126.093 24.88C125.741 27.76 124.589 30.064 122.637 31.792C120.717 33.52 118.333 34.384 115.485 34.384ZM116.157 28.576C117.053 28.576 117.789 28.272 118.365 27.664C118.973 27.024 119.341 26.192 119.469 25.168L121.437 9.232C121.469 9.104 121.485 8.912 121.485 8.656C121.485 7.792 121.261 7.104 120.813 6.592C120.365 6.08 119.757 5.824 118.989 5.824C118.125 5.824 117.389 6.144 116.781 6.784C116.205 7.392 115.853 8.208 115.725 9.232L113.757 25.168C113.725 25.296 113.709 25.488 113.709 25.744C113.709 26.608 113.933 27.296 114.381 27.808C114.829 28.32 115.421 28.576 116.157 28.576ZM0.68 72C0.52 72 0.392 71.952 0.296 71.856C0.2 71.728 0.168 71.584 0.2 71.424L4.184 38.976C4.216 38.816 4.28 38.688 4.376 38.592C4.504 38.464 4.648 38.4 4.808 38.4H10.232C10.584 38.4 10.76 38.592 10.76 38.976L7.448 65.952C7.384 66.112 7.448 66.192 7.64 66.192H17.384C17.736 66.192 17.912 66.384 17.912 66.768L17.336 71.424C17.304 71.584 17.224 71.728 17.096 71.856C17 71.952 16.872 72 16.712 72H0.68ZM28.6726 72.384C26.0806 72.384 24.0326 71.68 22.5286 70.272C21.0566 68.832 20.3206 66.88 20.3206 64.416C20.3206 64.096 20.3526 63.584 20.4166 62.88L22.2886 47.52C22.6406 44.64 23.7766 42.336 25.6966 40.608C27.6166 38.88 30.0006 38.016 32.8486 38.016C35.4406 38.016 37.4886 38.736 38.9926 40.176C40.4966 41.584 41.2486 43.52 41.2486 45.984C41.2486 46.304 41.2166 46.816 41.1526 47.52L39.2806 62.88C38.9286 65.76 37.7766 68.064 35.8246 69.792C33.9046 71.52 31.5206 72.384 28.6726 72.384ZM29.3446 66.576C30.2406 66.576 30.9766 66.272 31.5526 65.664C32.1606 65.024 32.5286 64.192 32.6566 63.168L34.6246 47.232C34.6566 47.104 34.6726 46.912 34.6726 46.656C34.6726 45.792 34.4486 45.104 34.0006 44.592C33.5526 44.08 32.9446 43.824 32.1766 43.824C31.3126 43.824 30.5766 44.144 29.9686 44.784C29.3926 45.392 29.0406 46.208 28.9126 47.232L26.9446 63.168C26.9126 63.296 26.8966 63.488 26.8966 63.744C26.8966 64.608 27.1206 65.296 27.5686 65.808C28.0166 66.32 28.6086 66.576 29.3446 66.576ZM42.305 72C42.145 72 42.017 71.952 41.921 71.856C41.825 71.728 41.793 71.584 41.825 71.424L45.809 38.976C45.841 38.816 45.905 38.688 46.001 38.592C46.129 38.464 46.273 38.4 46.433 38.4H54.833C57.425 38.4 59.457 39.12 60.929 40.56C62.433 41.968 63.185 43.872 63.185 46.272C63.185 46.592 63.153 47.072 63.089 47.712L61.217 62.688C60.865 65.504 59.729 67.76 57.809 69.456C55.921 71.152 53.553 72 50.705 72H42.305ZM49.073 65.952C49.009 66.112 49.073 66.192 49.265 66.192L51.377 66.144C52.209 66.112 52.929 65.744 53.537 65.04C54.177 64.336 54.577 63.408 54.737 62.256L56.465 48.144C56.497 47.952 56.513 47.68 56.513 47.328C56.513 46.368 56.289 45.616 55.841 45.072C55.425 44.496 54.817 44.208 54.017 44.208H51.953C51.793 44.208 51.713 44.288 51.713 44.448L49.073 65.952ZM84.3523 43.632C84.3203 43.792 84.2403 43.936 84.1123 44.064C84.0163 44.16 83.8883 44.208 83.7283 44.208H73.9843C73.8243 44.208 73.7443 44.288 73.7443 44.448L72.7843 52.032C72.7843 52.192 72.8483 52.272 72.9763 52.272H78.5923C78.7523 52.272 78.8803 52.336 78.9763 52.464C79.0723 52.56 79.1043 52.688 79.0723 52.848L78.4963 57.504C78.4643 57.664 78.3843 57.808 78.2563 57.936C78.1603 58.032 78.0323 58.08 77.8723 58.08H72.3043C72.1123 58.08 72.0163 58.16 72.0163 58.32L71.1043 65.952C71.0403 66.112 71.1043 66.192 71.2963 66.192H80.9923C81.1523 66.192 81.2803 66.256 81.3763 66.384C81.5043 66.48 81.5523 66.608 81.5203 66.768L80.9443 71.424C80.9123 71.584 80.8323 71.728 80.7043 71.856C80.6083 71.952 80.4803 72 80.3203 72H64.3363C64.1763 72 64.0483 71.952 63.9523 71.856C63.8563 71.728 63.8243 71.584 63.8563 71.424L67.8403 38.976C67.8723 38.816 67.9363 38.688 68.0323 38.592C68.1603 38.464 68.3043 38.4 68.4643 38.4H84.4483C84.6083 38.4 84.7363 38.464 84.8323 38.592C84.9283 38.688 84.9603 38.816 84.9283 38.976L84.3523 43.632ZM92.5029 72.384C90.0389 72.384 88.0709 71.696 86.5989 70.32C85.1589 68.944 84.4389 67.136 84.4389 64.896C84.4389 64.608 84.4709 64.176 84.5349 63.6L84.7269 62.208C84.7589 62.048 84.8229 61.92 84.9189 61.824C85.0469 61.696 85.1909 61.632 85.3509 61.632H90.6789C91.0309 61.632 91.2069 61.824 91.2069 62.208L91.0629 63.264C91.0309 63.392 91.0149 63.584 91.0149 63.84C91.0149 64.672 91.2229 65.344 91.6389 65.856C92.0549 66.336 92.5989 66.576 93.2709 66.576C94.1029 66.576 94.8069 66.24 95.3829 65.568C95.9909 64.864 96.2949 64 96.2949 62.976C96.2949 62.144 96.0229 61.408 95.4789 60.768C94.9349 60.128 93.8949 59.184 92.3589 57.936C91.0789 56.912 90.0389 56 89.2389 55.2C88.4389 54.368 87.7509 53.392 87.1749 52.272C86.6309 51.12 86.3589 49.808 86.3589 48.336C86.3589 46.32 86.7909 44.528 87.6549 42.96C88.5509 41.392 89.7669 40.176 91.3029 39.312C92.8709 38.448 94.6149 38.016 96.5349 38.016C98.9989 38.016 100.951 38.736 102.391 40.176C103.863 41.584 104.599 43.472 104.599 45.84C104.599 46.128 104.567 46.592 104.503 47.232L104.359 48.384C104.327 48.544 104.247 48.688 104.119 48.816C103.991 48.912 103.847 48.96 103.687 48.96H98.3589C98.1989 48.96 98.0709 48.912 97.9749 48.816C97.8789 48.688 97.8469 48.544 97.8789 48.384L98.0229 47.088C98.0549 46.96 98.0709 46.752 98.0709 46.464C98.0709 45.664 97.8629 45.024 97.4469 44.544C97.0629 44.064 96.5189 43.824 95.8149 43.824C94.9829 43.824 94.2789 44.176 93.7029 44.88C93.1589 45.552 92.8869 46.464 92.8869 47.616C92.8869 48.384 93.1429 49.12 93.6549 49.824C94.1989 50.496 95.1749 51.424 96.5829 52.608C98.1829 53.952 99.3829 55.04 100.183 55.872C101.015 56.672 101.671 57.552 102.151 58.512C102.631 59.472 102.871 60.576 102.871 61.824C102.871 62.08 102.839 62.528 102.775 63.168C102.423 65.984 101.303 68.224 99.4149 69.888C97.5269 71.552 95.2229 72.384 92.5029 72.384ZM107.802 72.192C106.842 72.192 106.058 71.888 105.45 71.28C104.842 70.64 104.538 69.84 104.538 68.88C104.538 67.664 104.938 66.656 105.738 65.856C106.57 65.024 107.578 64.608 108.762 64.608C109.754 64.608 110.538 64.912 111.114 65.52C111.722 66.096 112.026 66.88 112.026 67.872C112.026 69.088 111.61 70.112 110.778 70.944C109.946 71.776 108.954 72.192 107.802 72.192Z" fill="black"/>
</svg>
