<svg width="60" height="60" viewBox="0 0 60 60" fill="none" xmlns="http://www.w3.org/2000/svg">
<path d="M33.8436 29.5693C33.8436 38.996 26.2674 46.6379 16.9221 46.6379C7.57682 46.6379 0 38.9943 0 29.5693C0 20.1442 7.57625 12.5 16.9221 12.5C26.2679 12.5 33.8436 20.1425 33.8436 29.5693Z" fill="black" fill-opacity="0.8"/>
<path d="M52.407 29.5693C52.407 38.4426 48.6188 45.6386 43.9459 45.6386C39.273 45.6386 35.4849 38.4426 35.4849 29.5693C35.4849 20.696 39.2724 13.4999 43.9453 13.4999C48.6183 13.4999 52.4064 20.6937 52.4064 29.5693" fill="black" fill-opacity="0.8"/>
<path d="M59.9998 29.5692C59.9998 37.5175 58.6677 43.9648 57.024 43.9648C55.3803 43.9648 54.0488 37.5192 54.0488 29.5692C54.0488 21.6192 55.3809 15.1736 57.024 15.1736C58.6671 15.1736 59.9998 21.6186 59.9998 29.5692Z" fill="black" fill-opacity="0.8"/>
</svg>
